<svg width="12" height="20" viewBox="0 0 12 20" fill="none" xmlns="http://www.w3.org/2000/svg">
<path d="M11.784 18.9989V0.998877C11.7835 0.816635 11.744 0.638 11.6696 0.482201C11.5952 0.326401 11.4888 0.199335 11.3618 0.114681C11.2349 0.0300274 11.0921 -0.00900841 10.949 0.00177383C10.8059 0.0125561 10.6678 0.0727501 10.5496 0.175877L0.322183 9.17588C-0.101861 9.54888 -0.101861 10.4469 0.322183 10.8209L10.5496 19.8209C10.6675 19.9251 10.8057 19.9861 10.9491 19.9975C11.0924 20.0089 11.2355 19.9701 11.3627 19.8854C11.49 19.8006 11.5965 19.6732 11.6708 19.5169C11.745 19.3606 11.7842 19.1815 11.784 18.9989Z" fill="#B2B0B0"/>
</svg>
