<svg width="32" height="24" viewBox="0 0 32 24" fill="none" xmlns="http://www.w3.org/2000/svg">
<path d="M7.11111 5.86714H24.8889V17.6014H7.11111V5.86714ZM29.3333 11.7343C29.3333 13.3545 30.5272 14.6679 32 14.6679V20.535C32 22.1552 30.8061 23.4686 29.3333 23.4686H2.66667C1.19389 23.4686 0 22.1552 0 20.535V14.6679C1.47278 14.6679 2.66667 13.3545 2.66667 11.7343C2.66667 10.1141 1.47278 8.80072 0 8.80072V2.93357C0 1.31338 1.19389 0 2.66667 0H29.3333C30.8061 0 32 1.31338 32 2.93357V8.80072C30.5272 8.80072 29.3333 10.1141 29.3333 11.7343ZM26.6667 5.37822C26.6667 4.56812 26.0697 3.91143 25.3333 3.91143H6.66667C5.93028 3.91143 5.33333 4.56812 5.33333 5.37822V18.0904C5.33333 18.9005 5.93028 19.5571 6.66667 19.5571H25.3333C26.0697 19.5571 26.6667 18.9005 26.6667 18.0904V5.37822Z" fill="#FFEEE7"/>
</svg>
