<svg width="36" height="24" viewBox="0 0 36 24" fill="none" xmlns="http://www.w3.org/2000/svg">
<path d="M30.3424 11.0394C30.3424 10.0694 30.7278 9.13907 31.4137 8.45316C32.0996 7.76725 33.03 7.38186 34 7.38186V3.85866C34.001 3.61427 33.9536 3.3722 33.8605 3.14625C33.7675 2.92031 33.6306 2.71496 33.4578 2.54223C33.285 2.36943 33.0798 2.23253 32.8538 2.13953C32.6279 2.04644 32.3857 1.99904 32.1413 2.00001H3.85864C3.36569 2.00001 2.89297 2.19581 2.54438 2.5444C2.19579 2.89298 2 3.36571 2 3.85866V8.00888C2.97008 8.00888 3.90037 8.39426 4.58627 9.08017C5.27225 9.76608 5.65757 10.6964 5.65757 11.6664C5.65757 12.6365 5.27225 13.5668 4.58627 14.2527C3.90037 14.9387 2.97008 15.324 2 15.324V19.8773C2 20.3703 2.19579 20.843 2.54438 21.1916C2.89297 21.5402 3.36569 21.7359 3.85864 21.7359H32.1413C32.3857 21.7369 32.6279 21.6895 32.8538 21.5965C33.0798 21.5034 33.285 21.3665 33.4578 21.1938C33.6306 21.021 33.7675 20.8157 33.8605 20.5898C33.9536 20.3638 34.001 20.1217 34 19.8773V14.7045C33.5191 14.7045 33.0428 14.6096 32.5985 14.4254C32.1543 14.2411 31.7508 13.971 31.411 13.6306C31.0713 13.2901 30.8021 12.8861 30.6187 12.4414C30.4353 11.9968 30.3414 11.5204 30.3424 11.0394Z" stroke="#FFEEE7" stroke-width="2.63492" stroke-miterlimit="10"/>
<path d="M9.79285 2.00002V21.736" stroke="#FFEEE7" stroke-width="2.63492" stroke-miterlimit="10" stroke-dasharray="4.74 4.74"/>
<path d="M14.6 11.4127C14.0483 10.6555 13.7837 9.72689 13.8535 8.79265C13.7846 7.86318 14.0493 6.93953 14.6 6.18756C14.8652 5.88689 15.195 5.65012 15.5647 5.49501C15.9345 5.3399 16.3345 5.27041 16.7348 5.29183C17.1351 5.27093 17.535 5.34065 17.9045 5.49576C18.2742 5.65087 18.604 5.88734 18.8696 6.18756C19.4239 6.93774 19.689 7.86273 19.6161 8.79265C19.69 9.72727 19.425 10.6573 18.8696 11.4127C18.604 11.713 18.2742 11.9494 17.9045 12.1045C17.535 12.2596 17.1351 12.3293 16.7348 12.3084C16.3345 12.3298 15.9345 12.2604 15.5647 12.1052C15.195 11.9501 14.8652 11.7133 14.6 11.4127ZM17.638 10.4721C17.8623 9.94209 17.9595 9.36696 17.9216 8.79265C17.9584 8.22251 17.8586 7.65186 17.6305 7.12808C17.5442 6.96714 17.4146 6.83361 17.2563 6.74261C17.0979 6.65155 16.9173 6.60669 16.7348 6.61303C16.5537 6.60385 16.3737 6.64677 16.2163 6.73672C16.0589 6.82666 15.9306 6.9599 15.8465 7.12061C15.6201 7.64738 15.5229 8.22065 15.5629 8.79265C15.5214 9.36711 15.6186 9.94314 15.8465 10.4721C15.9288 10.6349 16.0565 10.7701 16.2142 10.8616C16.3719 10.953 16.5527 10.9967 16.7348 10.9872C16.9189 10.9968 17.1018 10.9534 17.2619 10.8621C17.422 10.7707 17.5525 10.6355 17.638 10.4721ZM18.1456 17.3842L16.7945 16.6004L23.5125 5.00072L24.8636 5.78448L18.1456 17.3842ZM22.7884 16.1451C22.232 15.3846 21.9672 14.4496 22.042 13.5102C21.9696 12.5826 22.2347 11.6601 22.7884 10.9125C23.0534 10.6161 23.3813 10.3825 23.748 10.2289C24.1148 10.0752 24.5112 10.0053 24.9083 10.0243C25.3097 10.0039 25.7105 10.0738 26.0812 10.2288C26.452 10.3838 26.7833 10.62 27.0506 10.92C27.6008 11.6723 27.8653 12.5957 27.7971 13.5251C27.8669 14.4593 27.6024 15.388 27.0506 16.1451C26.785 16.4454 26.4552 16.6819 26.0856 16.8369C25.716 16.992 25.3161 17.0617 24.9158 17.0408C24.5165 17.0622 24.1176 16.9927 23.7492 16.8376C23.3807 16.6824 23.0522 16.4456 22.7884 16.1451ZM25.7742 15.212C26.005 14.6812 26.1049 14.1026 26.0653 13.5251C26.1032 12.9573 26.0034 12.3889 25.7742 11.868C25.6843 11.7097 25.5541 11.578 25.3967 11.4864C25.2394 11.3948 25.0605 11.3466 24.8785 11.3466C24.6964 11.3466 24.5177 11.3948 24.3603 11.4864C24.203 11.578 24.0727 11.7097 23.9828 11.868C23.7536 12.3889 23.6537 12.9573 23.6916 13.5251C23.6615 14.1051 23.7716 14.6837 24.0126 15.212C24.1055 15.3666 24.2368 15.4945 24.3937 15.5833C24.5507 15.6722 24.728 15.7188 24.9083 15.7188C25.0887 15.7188 25.266 15.6722 25.4229 15.5833C25.5799 15.4945 25.7112 15.3666 25.8041 15.212H25.7742Z" fill="#FFEEE7"/>
</svg>
