<svg width="32" height="32" viewBox="0 0 32 32" fill="none" xmlns="http://www.w3.org/2000/svg">
<path d="M8.0048 19.1408C5.92954 17.6956 4.57143 15.2921 4.57143 12.5714C4.57143 8.15315 8.15315 4.57143 12.5714 4.57143C16.9897 4.57143 20.5714 8.15315 20.5714 12.5714C20.5714 15.2921 19.2133 17.6956 17.1381 19.1408C21.8233 20.9683 25.1429 25.5251 25.1429 30.8571C25.1429 31.2424 25.1255 31.6236 25.0916 32H22.7944C22.8358 31.6248 22.8571 31.2434 22.8571 30.8571C22.8571 25.1765 18.2521 20.5714 12.5714 20.5714C6.89079 20.5714 2.28571 25.1765 2.28571 30.8571C2.28571 31.2434 2.30701 31.6248 2.34849 32H0.0512491C0.0173286 31.6236 0 31.2424 0 30.8571C0 25.5251 3.31958 20.9683 8.0048 19.1408ZM12.5714 18.2857C15.7273 18.2857 18.2857 15.7273 18.2857 12.5714C18.2857 9.41552 15.7273 6.85714 12.5714 6.85714C9.41552 6.85714 6.85714 9.41552 6.85714 12.5714C6.85714 15.7273 9.41552 18.2857 12.5714 18.2857ZM22.1368 16.3603C22.6016 15.1879 22.8571 13.9097 22.8571 12.5718C24.2451 11.5293 25.1429 9.86951 25.1429 8C25.1429 4.84409 22.5845 2.28571 19.4286 2.28571C18.3703 2.28571 17.3793 2.57338 16.5293 3.07479C15.6605 2.71228 14.7314 2.46552 13.7611 2.35377C15.2097 0.899814 17.214 0 19.4286 0C23.8469 0 27.4286 3.58172 27.4286 8C27.4286 10.7207 26.0705 13.1241 23.9952 14.5694C28.6804 16.3969 32 20.9536 32 26.2857C32 26.671 31.9827 27.0522 31.9488 27.4286H29.6515C29.693 27.0533 29.7143 26.672 29.7143 26.2857C29.7143 21.5424 26.5035 17.549 22.1368 16.3603Z" fill="#FFEEE7"/>
</svg>
