<svg width="34" height="30" viewBox="0 0 34 30" fill="none" xmlns="http://www.w3.org/2000/svg">
<path d="M4.2 13.4677L3.424 13.6452C2.73171 13.8038 2.11713 14.17 1.67793 14.6856C1.23873 15.2012 1.00011 15.8366 1 16.4907V19.2439C1.00011 19.8981 1.23873 20.5334 1.67793 21.049C2.11713 21.5646 2.73171 21.9308 3.424 22.0895L6.208 22.7275C6.34947 22.7598 6.4971 22.7621 6.6397 22.7343C6.78229 22.7065 6.91611 22.6493 7.031 22.5671C7.14589 22.4848 7.23882 22.3796 7.30276 22.2595C7.36669 22.1394 7.39995 22.0075 7.4 21.8738V13.8608C7.40001 13.727 7.36673 13.5949 7.30271 13.4747C7.23868 13.3544 7.14559 13.2492 7.03051 13.1668C6.91543 13.0845 6.78139 13.0274 6.63858 12.9997C6.49578 12.972 6.34797 12.9746 6.2064 13.0071L4.2 13.4677ZM4.2 13.4677V12.7343C4.2 9.62216 5.54857 6.6375 7.94903 4.43689C10.3495 2.23629 13.6052 1 17 1C20.3948 1 23.6505 2.23629 26.051 4.43689C28.4514 6.6375 29.8 9.62216 29.8 12.7343V13.4677M29.8 13.4677L30.576 13.6452C31.2683 13.8038 31.8829 14.17 32.3221 14.6856C32.7613 15.2012 32.9999 15.8366 33 16.4907V19.2439C32.9999 19.8981 32.7613 20.5334 32.3221 21.049C31.8829 21.5646 31.2683 21.9308 30.576 22.0895L29.8 22.2684M29.8 13.4677L27.792 13.0071C27.6505 12.9748 27.5029 12.9725 27.3603 13.0003C27.2177 13.0281 27.0839 13.0853 26.969 13.1676C26.8541 13.2498 26.7612 13.355 26.6972 13.4751C26.6333 13.5952 26.6001 13.7271 26.6 13.8608V21.8738C26.6001 22.0075 26.6333 22.1394 26.6972 22.2595C26.7612 22.3796 26.8541 22.4848 26.969 22.5671C27.0839 22.6493 27.2177 22.7065 27.3603 22.7343C27.5029 22.7621 27.6505 22.7598 27.792 22.7275L29.8 22.2684M29.8 22.2684V23.7352C29.8 24.5132 29.4629 25.2594 28.8627 25.8095C28.2626 26.3597 27.4487 26.6688 26.6 26.6688H21.8M21.8 26.6688C21.8 26.0852 21.5471 25.5256 21.0971 25.113C20.647 24.7004 20.0365 24.4686 19.4 24.4686H14.6C13.9635 24.4686 13.353 24.7004 12.9029 25.113C12.4529 25.5256 12.2 26.0852 12.2 26.6688C12.2 27.2523 12.4529 27.8119 12.9029 28.2245C13.353 28.6371 13.9635 28.8689 14.6 28.8689H19.4C20.0365 28.8689 20.647 28.6371 21.0971 28.2245C21.5471 27.8119 21.8 27.2523 21.8 26.6688Z" stroke="#FFEEE7" stroke-width="1.5"/>
</svg>
