<svg width="230" height="59" viewBox="0 0 230 59" fill="none" xmlns="http://www.w3.org/2000/svg">
<g clip-path="url(#clip0_10_62)">
<path fill-rule="evenodd" clip-rule="evenodd" d="M45.4125 25.848C46.2286 26.5612 46.7947 27.4731 47.0412 28.4713C47.2875 29.4696 47.2034 30.5107 46.7994 31.4667L43.7201 38.977C42.912 40.9488 41.0701 42.4742 38.7937 42.8725C37.6551 43.077 36.4761 42.9998 35.3825 42.6492C34.289 42.2986 33.3222 41.6877 32.5855 40.8817L14.121 21.0197C14.0752 20.9709 14.0158 20.9337 13.9488 20.9119C13.8819 20.89 13.8097 20.8845 13.7396 20.8956C13.6694 20.9066 13.6038 20.934 13.5491 20.9751C13.4945 21.0162 13.4529 21.0693 13.4283 21.1294L7.42085 35.7177C7.29622 36.0194 7.62683 36.3114 7.95482 36.1913L15.3268 33.488C15.7423 33.3367 16.1883 33.2642 16.6365 33.2749C17.0849 33.2857 17.5259 33.3795 17.9319 33.5505C18.3378 33.7214 18.7002 33.9659 18.9959 34.2685C19.2918 34.5712 19.5148 34.9254 19.6509 35.309C20.1954 36.8085 19.2796 38.4282 17.6673 39.0194L8.03747 42.5497C6.25452 43.2033 4.20655 43.0879 2.60071 42.1256C1.50638 41.469 0.690511 40.5004 0.284872 39.3761C-0.120766 38.2519 -0.0924906 37.0379 0.365132 35.9298L7.46284 18.6993C8.30381 16.6568 10.2193 15.215 12.5874 14.8428C13.7406 14.6573 14.9281 14.751 16.0274 15.1143C17.1269 15.4776 18.0988 16.0975 18.8428 16.91L29.4408 28.3122L39.1887 24.7372C41.3547 23.9433 43.7398 24.3686 45.4125 25.848ZM39.7908 31.5751C39.9142 31.2735 39.5835 30.9814 39.2555 31.1027L33.87 33.0769L37.1 36.5529C37.1458 36.6024 37.2054 36.6401 37.2726 36.6622C37.34 36.6845 37.4125 36.6902 37.483 36.6792C37.5537 36.668 37.6197 36.6403 37.6745 36.5989C37.7293 36.5575 37.7711 36.5039 37.7953 36.4433L39.7908 31.5751Z" fill="url(#paint0_linear_10_62)"/>
<path d="M83.3257 32.3649C81.9244 32.2395 80.5515 32.1769 79.2071 32.1769C77.8741 32.1769 76.4898 32.2623 75.0543 32.4332C73.2427 37.4918 71.3002 41.1092 69.2266 43.2853C68.4633 44.0942 67.6714 44.6411 66.8511 44.9259C66.6461 45.0057 66.4353 45.0455 66.2188 45.0455C66.0137 45.0455 65.8314 45.0057 65.6719 44.9259C65.501 44.8575 65.3643 44.7664 65.2618 44.6525C65.0225 44.4246 64.9029 44.1853 64.9029 43.9347C64.9029 43.6726 64.9883 43.479 65.1592 43.3536C66.9708 42.0548 68.8905 38.6767 70.9185 33.2194C70.8274 33.2421 70.7419 33.2649 70.6622 33.2877C70.5824 33.3105 70.4856 33.339 70.3716 33.3732C70.2577 33.4073 70.121 33.3732 69.9615 33.2706C69.802 33.1681 69.6596 33.0314 69.5342 32.8605C69.238 32.4503 69.1981 32.1484 69.4146 31.9547C69.8134 31.6015 70.5767 31.2654 71.7047 30.9464C73.2313 26.2182 74.0232 22.8686 74.0801 20.8976C73.613 20.9204 73.1801 21.0457 72.7813 21.2736L71.4825 22.0084C71.1293 22.2021 70.6622 22.0483 70.0811 21.547C69.5115 21.0685 69.2608 20.6128 69.3292 20.1798C69.4089 19.5304 70.3204 18.9949 72.0635 18.5734C72.6788 18.4253 73.163 18.3512 73.5162 18.3512C73.8694 18.3512 74.2169 18.3626 74.5587 18.3854C74.9118 18.3968 75.2309 18.4366 75.5157 18.505C76.655 18.7784 77.3557 19.2684 77.6177 19.9747C77.7317 20.2937 77.7886 20.6811 77.7886 21.1368C77.7886 21.5812 77.7431 22.111 77.6519 22.7262C77.5608 23.33 77.4297 24.0193 77.2589 24.7941C76.8943 26.4803 76.4101 28.2804 75.8062 30.1945C78.2899 29.8982 80.8591 29.7501 83.5137 29.7501H84.2486L85.1885 26.9474C86.2367 23.7915 86.8804 21.4046 87.1197 19.7867C87.2678 18.8297 87.7463 18.3512 88.5552 18.3512C89.0793 18.3512 89.5123 18.4822 89.8541 18.7443C90.4921 19.2114 90.7997 19.7184 90.7769 20.2653C90.7541 20.8007 90.6573 21.4046 90.4864 22.0768C90.3155 22.749 90.0933 23.5009 89.8199 24.3326C89.5464 25.1643 89.2331 26.0587 88.8799 27.0157L87.8033 29.9039L88.2134 29.9381C88.3843 29.9609 88.5438 29.9837 88.692 30.0065C88.8515 30.0179 88.9882 30.0463 89.1021 30.0919C89.3414 30.1831 89.461 30.3426 89.461 30.5704C89.461 30.7869 89.3926 31.0205 89.2559 31.2711C89.1306 31.5104 88.9483 31.7382 88.709 31.9547C88.128 32.4788 87.4558 32.7522 86.6924 32.775C85.3025 36.4323 84.4936 38.6767 84.2657 39.5084C84.0378 40.3287 83.9239 40.887 83.9239 41.1832C83.9239 41.7985 84.1688 42.1061 84.6588 42.1061C85.1145 42.1061 85.4848 42.032 85.7696 41.8839L86.3848 41.5763C86.5102 41.5193 86.6298 41.4908 86.7437 41.4908C86.983 41.4908 87.1026 41.6105 87.1026 41.8497C87.1026 42.8637 86.5158 43.7125 85.3423 44.3961C84.5676 44.8518 83.7644 45.0797 82.9327 45.0797C81.7706 45.0797 80.9616 44.5613 80.5059 43.5245C80.3464 43.1713 80.2667 42.8352 80.2667 42.5162C80.2667 41.7757 80.3806 41.0294 80.6085 40.2775C80.8363 39.5141 81.087 38.7394 81.3604 37.9532L83.3257 32.3649ZM109.588 40.6193C109.93 40.6193 110.101 40.944 110.101 41.5934C110.101 42.2428 110.004 42.7726 109.81 43.1827C109.617 43.5929 109.349 43.9404 109.007 44.2252C108.312 44.8063 107.389 45.0968 106.238 45.0968C105.441 45.0968 104.535 44.9373 103.521 44.6183C102.507 44.2879 101.727 44.0486 101.18 43.9005C100.644 43.7524 100.149 43.6783 99.693 43.6783C99.2487 43.6783 98.8841 43.7239 98.5993 43.8151C98.3258 43.9062 98.0695 44.0201 97.8302 44.1569C97.6024 44.2936 97.3802 44.436 97.1637 44.5841C96.708 44.9031 96.3947 45.0626 96.2238 45.0626C96.0643 45.0626 95.9048 45.017 95.7453 44.9259C95.5858 44.8348 95.4377 44.7151 95.3009 44.567C94.9819 44.2252 94.8224 43.9575 94.8224 43.7638C94.8224 43.5701 94.925 43.2226 95.13 42.7213C95.3465 42.22 95.7738 41.5307 96.4118 40.6534C97.0498 39.7648 97.7562 38.8932 98.5309 38.0387C99.3057 37.1728 100.126 36.3183 100.992 35.4752C103.521 32.9915 105.162 31.3509 105.914 30.5533C106.677 29.7558 107.349 28.964 107.93 28.1779C109.195 26.4803 109.827 24.9479 109.827 23.5807C109.827 22.1337 109.309 21.1995 108.272 20.778C107.953 20.6526 107.537 20.59 107.025 20.59C106.523 20.59 106.016 20.7381 105.504 21.0343C104.991 21.3191 104.558 21.6837 104.205 22.1281C103.476 23.0281 103.111 24.0022 103.111 25.0504C103.111 26.0074 103.384 26.5999 103.931 26.8278C104.159 26.9303 104.273 27.0784 104.273 27.2721C104.273 27.6823 104.074 28.0582 103.675 28.4C102.934 29.038 102.302 29.3571 101.778 29.3571C101.254 29.3571 100.832 29.2602 100.513 29.0665C100.194 28.8728 99.9266 28.6165 99.7101 28.2975C99.2772 27.6595 99.0607 26.9702 99.0607 26.2296C99.0607 25.4777 99.1519 24.8055 99.3341 24.213C99.5164 23.6206 99.7785 23.0452 100.12 22.4869C100.473 21.9173 100.889 21.3818 101.368 20.8805C101.858 20.3792 102.405 19.9406 103.008 19.5646C104.341 18.7443 105.646 18.3341 106.922 18.3341C108.209 18.3341 109.223 18.505 109.964 18.8468C110.716 19.1886 111.326 19.6329 111.793 20.1798C112.659 21.228 113.091 22.561 113.091 24.1788C113.091 26.8335 111.804 29.5166 109.229 32.2281C107.873 33.6523 106.5 34.9226 105.111 36.0392L101.863 38.6539C100.097 40.1123 98.8784 41.3086 98.2062 42.2428C99.0835 41.8554 99.807 41.6447 100.377 41.6105C100.946 41.5649 101.408 41.5535 101.761 41.5763C102.125 41.5877 102.507 41.6105 102.906 41.6447C103.954 41.7358 104.791 41.7814 105.418 41.7814C106.045 41.7814 106.586 41.7244 107.042 41.6105C107.509 41.4851 107.885 41.3484 108.17 41.2003C108.466 41.0522 108.711 40.9212 108.904 40.8073C109.098 40.6819 109.326 40.6193 109.588 40.6193ZM136.021 43.1656L136.038 43.7296C136.038 44.117 135.93 44.4189 135.714 44.6354C135.497 44.8518 135.201 44.9601 134.825 44.9601C134.46 44.9601 134.05 44.8063 133.594 44.4987C133.139 44.191 132.655 43.6726 132.142 42.9435C131.629 42.2143 131.122 41.2231 130.621 39.9698C130.12 38.7052 129.704 37.3608 129.373 35.9366C128.712 33.1111 128.382 30.1546 128.382 27.067C128.382 25.5289 128.468 24.0649 128.638 22.6749L128.416 22.9825C126.297 26.0131 124.417 30.559 122.777 36.6202C122.002 39.4458 121.466 42.1061 121.17 44.6012C121.125 44.943 120.845 45.1139 120.333 45.1139C119.524 45.1139 118.937 44.698 118.573 43.8663C118.447 43.5701 118.385 43.1543 118.385 42.6188C118.385 42.0833 118.481 41.3029 118.675 40.2775C118.88 39.2407 119.159 38.1014 119.512 36.8595C119.866 35.6062 120.293 34.2903 120.794 32.9117C121.296 31.5218 121.842 30.1489 122.435 28.7931C123.039 27.4373 123.682 26.1442 124.366 24.9137C125.061 23.6832 125.773 22.5952 126.502 21.6495C128.12 19.576 129.635 18.505 131.048 18.4366C131.823 18.3911 132.313 18.5107 132.518 18.7955C132.746 19.1145 132.768 19.6614 132.586 20.4362C132.256 21.7692 132.091 23.0908 132.091 24.401C132.091 25.7112 132.119 26.8164 132.176 27.7164C132.244 28.6165 132.336 29.5223 132.449 30.4337C132.563 31.3338 132.7 32.2281 132.86 33.1168C133.031 34.0055 133.213 34.8543 133.407 35.6632C133.851 37.4406 134.301 38.8419 134.757 39.8673C135.121 38.9217 135.52 37.976 135.953 37.0304L138.499 31.4249C139.912 28.2576 140.618 25.7169 140.618 23.8029C140.618 22.0027 140.248 20.9147 139.508 20.5387C139.325 20.4589 139.211 20.3108 139.166 20.0944C139.132 19.8779 139.171 19.6614 139.285 19.4449C139.411 19.2285 139.57 19.0405 139.764 18.881C140.22 18.505 140.721 18.317 141.268 18.317C141.826 18.317 142.339 18.4366 142.806 18.6759C143.273 18.9038 143.66 19.2114 143.968 19.5988C144.549 20.3393 144.84 21.2166 144.84 22.2306C144.84 23.2332 144.663 24.2757 144.31 25.358C143.968 26.429 143.524 27.5512 142.977 28.7247C142.43 29.8868 141.82 31.0717 141.148 32.2794L139.183 35.8683C137.622 38.7166 136.608 40.8813 136.141 42.3624C136.061 42.5903 136.021 42.858 136.021 43.1656Z" fill="url(#paint1_linear_10_62)"/>
</g>
<defs>
<linearGradient id="paint0_linear_10_62" x1="1.32687e-06" y1="14.75" x2="24.882" y2="56.3279" gradientUnits="userSpaceOnUse">
<stop stop-color="#FF4244"/>
<stop offset="1" stop-color="#FF8E3C"/>
</linearGradient>
<linearGradient id="paint1_linear_10_62" x1="105.332" y1="10.9259" x2="105.332" y2="42.9753" gradientUnits="userSpaceOnUse">
<stop stop-color="#FF4E43"/>
<stop offset="0.525" stop-color="#FF703F"/>
</linearGradient>
<clipPath id="clip0_10_62">
<rect width="230" height="59" fill="white"/>
</clipPath>
</defs>
</svg>
