<svg width="20" height="24" viewBox="0 0 20 24" fill="none" xmlns="http://www.w3.org/2000/svg">
<path fill-rule="evenodd" clip-rule="evenodd" d="M0 5.85678C0 4.30346 0.56091 2.81377 1.55934 1.71541C2.55776 0.617052 3.91192 0 5.32391 0H10.6478C10.9302 0 11.2011 0.12341 11.4007 0.343082C11.6004 0.562754 11.7126 0.860693 11.7126 1.17136C11.7126 1.48202 11.6004 1.77996 11.4007 1.99963C11.2011 2.2193 10.9302 2.34271 10.6478 2.34271H5.32391C4.47672 2.34271 3.66422 2.71294 3.06517 3.37196C2.46611 4.03097 2.12956 4.92479 2.12956 5.85678V17.5703C2.12956 18.5023 2.46611 19.3961 3.06517 20.0552C3.66422 20.7142 4.47672 21.0844 5.32391 21.0844H10.6478C10.9302 21.0844 11.2011 21.2078 11.4007 21.4275C11.6004 21.6472 11.7126 21.9451 11.7126 22.2558C11.7126 22.5664 11.6004 22.8644 11.4007 23.084C11.2011 23.3037 10.9302 23.4271 10.6478 23.4271H5.32391C3.91192 23.4271 2.55776 22.8101 1.55934 21.7117C0.56091 20.6133 0 19.1236 0 17.5703V5.85678Z" fill="#FFEEE7"/>
<path fill-rule="evenodd" clip-rule="evenodd" d="M12.2131 6.22691C12.3087 6.11457 12.4235 6.02406 12.5509 5.96054C12.6784 5.89703 12.8159 5.86176 12.9557 5.85676C13.0956 5.85176 13.2349 5.87711 13.3658 5.93138C13.4967 5.98565 13.6166 6.06776 13.7187 6.17303L18.8296 11.4441C18.936 11.5537 19.0208 11.6861 19.0788 11.8332C19.1368 11.9803 19.1667 12.1389 19.1667 12.2992C19.1667 12.4595 19.1368 12.6181 19.0788 12.7652C19.0208 12.9123 18.936 13.0447 18.8296 13.1543L13.7187 18.4254C13.6166 18.5306 13.4967 18.6127 13.3658 18.6669C13.2349 18.7212 13.0955 18.7465 12.9557 18.7415C12.8159 18.7365 12.6784 18.7013 12.551 18.6378C12.4235 18.5743 12.3087 18.4838 12.2131 18.3715C12.1174 18.2592 12.0428 18.1273 11.9935 17.9833C11.9442 17.8393 11.9212 17.686 11.9257 17.5322C11.9303 17.3784 11.9623 17.2271 12.02 17.0869C12.0777 16.9468 12.16 16.8204 12.2621 16.7152L15.4085 13.4706H5.32394C5.04154 13.4706 4.77071 13.3472 4.57102 13.1275C4.37134 12.9078 4.25916 12.6099 4.25916 12.2992C4.25916 11.9886 4.37134 11.6906 4.57102 11.4709C4.77071 11.2513 5.04154 11.1279 5.32394 11.1279H15.4085L12.2621 7.88321C12.1599 7.77803 12.0777 7.65173 12.0199 7.51155C11.9622 7.37137 11.9301 7.22005 11.9256 7.06623C11.921 6.91241 11.9441 6.75911 11.9934 6.6151C12.0427 6.47109 12.1174 6.33918 12.2131 6.22691Z" fill="#FFEEE7"/>
</svg>
