<svg width="40" height="41" viewBox="0 0 40 41" fill="none" xmlns="http://www.w3.org/2000/svg">
<path d="M36.25 35.0164L26.8098 25.4301C29.0782 22.6647 30.2094 19.1176 29.968 15.5267C29.7266 11.9359 28.1312 8.57784 25.5138 6.15107C22.8963 3.7243 19.4583 2.41568 15.915 2.49745C12.3716 2.57922 8.99566 4.04507 6.48947 6.59007C3.98328 9.13508 2.53979 12.5633 2.45927 16.1615C2.37875 19.7598 3.6674 23.251 6.05716 25.909C8.44692 28.567 11.7538 30.1871 15.2898 30.4322C18.8259 30.6773 22.3189 29.5287 25.0422 27.2251L34.4823 36.8115L36.25 35.0164ZM4.99995 16.5017C4.99995 14.2422 5.65975 12.0335 6.89592 10.1547C8.13208 8.27604 9.88909 6.81177 11.9448 5.9471C14.0004 5.08242 16.2624 4.85619 18.4447 5.29699C20.627 5.7378 22.6316 6.82585 24.2049 8.42356C25.7782 10.0213 26.8497 12.0569 27.2838 14.273C27.7179 16.489 27.4951 18.7861 26.6436 20.8736C25.7921 22.9611 24.3502 24.7453 22.5001 26.0006C20.6501 27.2559 18.475 27.9259 16.2499 27.9259C13.2673 27.9226 10.4077 26.7179 8.29865 24.5761C6.18958 22.4344 5.00326 19.5306 4.99995 16.5017Z" fill="#B2B0B0"/>
</svg>
