<svg width="32" height="32" viewBox="0 0 32 32" fill="none" xmlns="http://www.w3.org/2000/svg">
<path fill-rule="evenodd" clip-rule="evenodd" d="M14.9333 17.699C7.86409 17.699 2.13333 23.6421 2.13333 30.9732H0C0 24.111 4.3038 18.2912 10.2649 16.2584C7.93747 14.678 6.4 11.9499 6.4 8.84949C6.4 3.96205 10.2205 0 14.9333 0C19.6462 0 23.4667 3.96205 23.4667 8.84949C23.4667 13.7369 19.6462 17.699 14.9333 17.699ZM14.9333 15.4866C18.468 15.4866 21.3333 12.5151 21.3333 8.84949C21.3333 5.18391 18.468 2.21237 14.9333 2.21237C11.3987 2.21237 8.53333 5.18391 8.53333 8.84949C8.53333 12.5151 11.3987 15.4866 14.9333 15.4866ZM25.6 16.6722L32 20.5042V28.1681L25.6 32L19.2 28.1681V20.5042L25.6 16.6722ZM21.3333 21.7815V26.8907L25.6 29.4454L29.8667 26.8907V21.7815L25.6 19.2269L21.3333 21.7815ZM25.6 26.5485C24.4218 26.5485 23.4667 25.558 23.4667 24.3361C23.4667 23.1143 24.4218 22.1237 25.6 22.1237C26.7782 22.1237 27.7333 23.1143 27.7333 24.3361C27.7333 25.558 26.7782 26.5485 25.6 26.5485Z" fill="#FFEEE7"/>
</svg>
